Coordinates
version=1
nRows=12
nColumns=24
inDegrees=yes

Units are S.I. units (second, meters, Newtons, ...)
Angles are in degrees.

endheader
time	pelvis_tilt	pelvis_list	pelvis_rotation	pelvis_tx	pelvis_ty	pelvis_tz	hip_flexion_r	hip_adduction_r	hip_rotation_r	knee_angle_r	ankle_angle_r	subtalar_angle_r	mtp_angle_r	hip_flexion_l	hip_adduction_l	hip_rotation_l	knee_angle_l	ankle_angle_l	subtalar_angle_l	mtp_angle_l	lumbar_extension	lumbar_bending	lumbar_rotation
      6.00000000	     43.14834268	      3.51067889	     -0.39728394	      0.68589498	      1.07838938	     -0.33505897	     28.08053910	    -14.32836661	      5.34461343	    -73.07138603	    -18.31878822	      0.00000000	      0.00000000	     22.71907561	    -12.52145403	     -5.85303787	    -68.01363719	    -14.31520180	      0.00000000	      0.00000000	      0.00000000	      0.00000000	      0.00000000
      6.01000000	     43.15132196	      3.50804831	     -0.40086833	      0.68589808	      1.07838808	     -0.33504872	     28.07064898	    -14.31210326	      5.32260682	    -73.05921199	    -18.31173640	      0.00000000	      0.00000000	     22.71339745	    -12.52270293	     -5.85592897	    -68.00311586	    -14.32001539	      0.00000000	      0.00000000	      0.00000000	      0.00000000	      0.00000000
      6.02000000	     43.15576388	      3.50604508	     -0.40413844	      0.68589498	      1.07840249	     -0.33503407	     28.06208146	    -14.29716215	      5.30276704	    -73.04969225	    -18.31007021	      0.00000000	      0.00000000	     22.70645956	    -12.52219993	     -5.85799224	    -67.99209918	    -14.32591773	      0.00000000	      0.00000000	      0.00000000	      0.00000000	      0.00000000
      6.03000000	     43.16158091	      3.50507294	     -0.40749654	      0.68588836	      1.07842787	     -0.33500862	     28.05395693	    -14.28443893	      5.28423572	    -73.04305570	    -18.31310156	      0.00000000	      0.00000000	     22.69802095	    -12.52009928	     -5.85963281	    -67.98053214	    -14.33206683	      0.00000000	      0.00000000	      0.00000000	      0.00000000	      0.00000000
      6.04000000	     43.16825302	      3.50510439	     -0.41109934	      0.68588230	      1.07844702	     -0.33498432	     28.04473789	    -14.27470976	      5.26702092	    -73.03883656	    -18.31649219	      0.00000000	      0.00000000	     22.68809580	    -12.51761544	     -5.86122831	    -67.96870394	    -14.33760145	      0.00000000	      0.00000000	      0.00000000	      0.00000000	      0.00000000
      6.05000000	     43.17561885	      3.50527628	     -0.41436061	      0.68587795	      1.07845182	     -0.33497867	     28.03350448	    -14.26835416	      5.25195962	    -73.03584393	    -18.31202803	      0.00000000	      0.00000000	     22.67672064	    -12.51674434	     -5.86283344	    -67.95715979	    -14.34190270	      0.00000000	      0.00000000	      0.00000000	      0.00000000	      0.00000000
      6.06000000	     43.18396775	      3.50410925	     -0.41622513	      0.68587590	      1.07845231	     -0.33498866	     28.02028180	    -14.26455476	      5.23981177	    -73.03293098	    -18.28889713	      0.00000000	      0.00000000	     22.66397494	    -12.51917574	     -5.86418474	    -67.94649106	    -14.34477702	      0.00000000	      0.00000000	      0.00000000	      0.00000000	      0.00000000
      6.07000000	     43.19316589	      3.50061949	     -0.41627634	      0.68588137	      1.07846572	     -0.33498443	     28.00474572	    -14.26023965	      5.22986274	    -73.03037126	    -18.23652427	      0.00000000	      0.00000000	     22.65062246	    -12.52481348	     -5.86520292	    -67.93703545	    -14.34649013	      0.00000000	      0.00000000	      0.00000000	      0.00000000	      0.00000000
      6.08000000	     43.20161332	      3.49585248	     -0.41576648	      0.68589860	      1.07849918	     -0.33494140	     27.98469968	    -14.24990721	      5.21919959	    -73.03075008	    -18.14837078	      0.00000000	      0.00000000	     22.63871758	    -12.53124963	     -5.86647302	    -67.92868946	    -14.34762529	      0.00000000	      0.00000000	      0.00000000	      0.00000000	      0.00000000
      6.09000000	     43.20628907	      3.49320630	     -0.41726808	      0.68591533	      1.07853428	     -0.33488315	     27.95676494	    -14.22782588	      5.20396154	    -73.03796556	    -18.02542859	      0.00000000	      0.00000000	     22.63085320	    -12.53528834	     -5.86888963	    -67.92114789	    -14.34881577	      0.00000000	      0.00000000	      0.00000000	      0.00000000	      0.00000000
      6.10000000	     43.20506105	      3.49547787	     -0.42239563	      0.68590853	      1.07854075	     -0.33486331	     27.92030034	    -14.19284463	      5.18276171	    -73.05409444	    -17.87778606	      0.00000000	      0.00000000	     22.62808862	    -12.53570544	     -5.87255090	    -67.91447850	    -14.35045810	      0.00000000	      0.00000000	      0.00000000	      0.00000000	      0.00000000
      6.11000000	     43.19983734	      3.50046828	     -0.42940764	      0.68588280	      1.07852392	     -0.33488054	     27.88120463	    -14.15217045	      5.15962563	    -73.07651752	    -17.72302767	      0.00000000	      0.00000000	     22.62861587	    -12.53465796	     -5.87611623	    -67.90946697	    -14.35252871	      0.00000000	      0.00000000	      0.00000000	      0.00000000	      0.00000000
